HIERARCHY
ROOT CG
{
	OFFSET 0.000000 0.000000 27.772259
	CHANNELS 6 Xposition Yposition Zposition Xrotation Yrotation Zrotation
	JOINT Pelvis
	{
		OFFSET 0.000000 0.000000 0.000000
		CHANNELS 3 Xrotation Yrotation Zrotation
		JOINT Spine
		{
			OFFSET -0.000017 -10.490843 -0.495483
			CHANNELS 3 Xrotation Yrotation Zrotation
			JOINT Spine1
			{
				OFFSET -0.000010 -22.678980 0.018061
				CHANNELS 3 Xrotation Yrotation Zrotation
				JOINT Spine2
				{
					OFFSET -0.000010 -22.678967 0.018061
					CHANNELS 3 Xrotation Yrotation Zrotation
					JOINT Spine3
					{
						OFFSET -0.000010 -22.678982 0.018059
						CHANNELS 3 Xrotation Yrotation Zrotation
						JOINT Neck
						{
							OFFSET -0.000012 -22.678986 -1.289251
							CHANNELS 3 Xrotation Yrotation Zrotation
							JOINT Neck1
							{
								OFFSET -0.000007 -16.255905 0.012947
								CHANNELS 3 Xrotation Yrotation Zrotation
								JOINT Head
								{
									OFFSET -0.000005 -10.784607 -0.287502
									CHANNELS 3 Xrotation Yrotation Zrotation
									JOINT Jaw01
									{
										OFFSET 0.000031 7.782959 5.073944
										CHANNELS 3 Xrotation Yrotation Zrotation
										JOINT Jaw02
										{
											OFFSET 0.000004 -34.927139 -18.883980
											CHANNELS 3 Xrotation Yrotation Zrotation
											End Site
											{
												OFFSET -0.000170 8.372803 -38.812450
											}
										}
									}
									JOINT Nose
									{
										OFFSET -0.000002 -25.700912 7.222265
										CHANNELS 3 Xrotation Yrotation Zrotation
										End Site
										{
											OFFSET -0.000090 0.641281 -21.715439
										}
									}
									JOINT L_EyeSocket
									{
										OFFSET 7.352326 -19.832718 14.164183
										CHANNELS 3 Xrotation Yrotation Zrotation
										JOINT L_Eye
										{
											OFFSET -0.000868 -0.001053 0.016003
											CHANNELS 3 Xrotation Yrotation Zrotation
											End Site
											{
												OFFSET -0.001505 -0.001846 0.027969
											}
										}
										JOINT L_Eyelid_Top
										{
											OFFSET -0.001004 -0.002625 0.032516
											CHANNELS 3 Xrotation Yrotation Zrotation
											End Site
											{
												OFFSET -0.013218 0.005753 0.024086
											}
										}
										JOINT L_Eyelid_Bottom
										{
											OFFSET -0.001194 -0.002777 0.035381
											CHANNELS 3 Xrotation Yrotation Zrotation
											End Site
											{
												OFFSET -0.010032 0.008636 -0.024754
											}
										}
									}
									JOINT R_EyeSocket
									{
										OFFSET -7.352252 -19.832748 14.164206
										CHANNELS 3 Xrotation Yrotation Zrotation
										JOINT R_Eye
										{
											OFFSET 0.000875 -0.001068 0.015991
											CHANNELS 3 Xrotation Yrotation Zrotation
											End Site
											{
												OFFSET 0.001505 -0.001846 0.027962
											}
										}
										JOINT R_Eyelid_Top
										{
											OFFSET 0.001021 -0.002625 0.032516
											CHANNELS 3 Xrotation Yrotation Zrotation
											End Site
											{
												OFFSET 0.013214 0.005753 0.024078
											}
										}
										JOINT R_Eyelid_Bottom
										{
											OFFSET 0.001170 -0.002762 0.035366
											CHANNELS 3 Xrotation Yrotation Zrotation
											End Site
											{
												OFFSET 0.010029 0.008636 -0.024746
											}
										}
									}
								}
								JOINT Neck_Fat
								{
									OFFSET 0.000044 -9.595100 -17.491512
									CHANNELS 3 Xrotation Yrotation Zrotation
									End Site
									{
										OFFSET -0.000036 15.369423 -0.000007
									}
								}
							}
						}
						JOINT L_Clavicle
						{
							OFFSET 4.567107 -11.666092 -3.750029
							CHANNELS 3 Xrotation Yrotation Zrotation
							JOINT L_UpperArm
							{
								OFFSET 20.725666 -0.000053 -0.000032
								CHANNELS 3 Xrotation Yrotation Zrotation
								JOINT L_Forearm
								{
									OFFSET 5.265112 -0.585754 -20.155697
									CHANNELS 3 Xrotation Yrotation Zrotation
									JOINT L_Hand
									{
										OFFSET 2.653017 -10.877708 -16.383667
										CHANNELS 3 Xrotation Yrotation Zrotation
										JOINT L_Finger0
										{
											OFFSET -4.206146 -4.328911 -5.034346
											CHANNELS 3 Xrotation Yrotation Zrotation
											JOINT L_Finger01
											{
												OFFSET 0.084272 -1.788536 -4.181065
												CHANNELS 3 Xrotation Yrotation Zrotation
												End Site
												{
													OFFSET 3.261885 3.094673 -0.685818
												}
											}
										}
										JOINT L_Finger1
										{
											OFFSET -1.039112 -6.775742 -3.499998
											CHANNELS 3 Xrotation Yrotation Zrotation
											JOINT L_Finger11
											{
												OFFSET 1.320335 -3.040672 -6.425793
												CHANNELS 3 Xrotation Yrotation Zrotation
												End Site
												{
													OFFSET -1.244579 6.832077 -2.013330
												}
											}
										}
										JOINT L_Finger2
										{
											OFFSET 2.531296 -5.656487 -3.286415
											CHANNELS 3 Xrotation Yrotation Zrotation
											JOINT L_Finger21
											{
												OFFSET 1.991665 -2.402016 -5.957748
												CHANNELS 3 Xrotation Yrotation Zrotation
												End Site
												{
													OFFSET -2.793068 5.800873 -1.944178
												}
											}
										}
										JOINT L_Finger3
										{
											OFFSET 5.474075 -3.302338 -2.655975
											CHANNELS 3 Xrotation Yrotation Zrotation
											JOINT L_Finger31
											{
												OFFSET 2.026943 -1.267532 -5.961166
												CHANNELS 3 Xrotation Yrotation Zrotation
												End Site
												{
													OFFSET -4.375172 4.343658 -1.800320
												}
											}
										}
										JOINT L_Finger4
										{
											OFFSET 4.825745 1.085899 -2.321970
											CHANNELS 3 Xrotation Yrotation Zrotation
											JOINT L_Finger41
											{
												OFFSET 3.358261 -1.829651 -3.744434
												CHANNELS 3 Xrotation Yrotation Zrotation
												End Site
												{
													OFFSET -3.843296 2.955200 -2.267633
												}
											}
										}
									}
								}
							}
						}
						JOINT R_Clavicle
						{
							OFFSET -4.567111 -11.666092 -3.750036
							CHANNELS 3 Xrotation Yrotation Zrotation
							JOINT R_UpperArm
							{
								OFFSET -20.725670 -0.000031 0.000038
								CHANNELS 3 Xrotation Yrotation Zrotation
								JOINT R_Forearm
								{
									OFFSET -5.265285 -0.585762 -20.155655
									CHANNELS 3 Xrotation Yrotation Zrotation
									JOINT R_Hand
									{
										OFFSET -2.653147 -10.877739 -16.383663
										CHANNELS 3 Xrotation Yrotation Zrotation
										JOINT R_Finger0
										{
											OFFSET 4.206116 -4.328888 -5.034388
											CHANNELS 3 Xrotation Yrotation Zrotation
											JOINT R_Finger01
											{
												OFFSET -0.084324 -1.788544 -4.181051
												CHANNELS 3 Xrotation Yrotation Zrotation
												End Site
												{
													OFFSET -3.261890 3.094666 -0.685791
												}
											}
										}
										JOINT R_Finger1
										{
											OFFSET 1.039101 -6.775711 -3.499994
											CHANNELS 3 Xrotation Yrotation Zrotation
											JOINT R_Finger11
											{
												OFFSET -1.320374 -3.040672 -6.425779
												CHANNELS 3 Xrotation Yrotation Zrotation
												End Site
												{
													OFFSET 1.244556 6.832077 -2.013342
												}
											}
										}
										JOINT R_Finger2
										{
											OFFSET -2.531307 -5.656464 -3.286409
											CHANNELS 3 Xrotation Yrotation Zrotation
											JOINT R_Finger21
											{
												OFFSET -1.991707 -2.402016 -5.957708
												CHANNELS 3 Xrotation Yrotation Zrotation
												End Site
												{
													OFFSET 2.793037 5.800858 -1.944197
												}
											}
										}
										JOINT R_Finger3
										{
											OFFSET -5.474091 -3.302330 -2.655947
											CHANNELS 3 Xrotation Yrotation Zrotation
											JOINT R_Finger31
											{
												OFFSET -2.026993 -1.267532 -5.961157
												CHANNELS 3 Xrotation Yrotation Zrotation
												End Site
												{
													OFFSET 4.375156 4.343674 -1.800358
												}
											}
										}
										JOINT R_Finger4
										{
											OFFSET -4.825756 1.085922 -2.321926
											CHANNELS 3 Xrotation Yrotation Zrotation
											JOINT R_Finger41
											{
												OFFSET -3.358307 -1.829651 -3.744390
												CHANNELS 3 Xrotation Yrotation Zrotation
												End Site
												{
													OFFSET 3.843273 2.955208 -2.267666
												}
											}
										}
									}
								}
							}
						}
					}
				}
			}
		}
		JOINT Tail01
		{
			OFFSET -0.000010 10.922326 -0.017508
			CHANNELS 3 Xrotation Yrotation Zrotation
			JOINT Tail02
			{
				OFFSET -0.000022 21.986111 0.000013
				CHANNELS 3 Xrotation Yrotation Zrotation
				JOINT Tail03
				{
					OFFSET -0.000022 21.986118 0.000002
					CHANNELS 3 Xrotation Yrotation Zrotation
					JOINT Tail04
					{
						OFFSET -0.000022 21.986122 0.000004
						CHANNELS 3 Xrotation Yrotation Zrotation
						JOINT Tail05
						{
							OFFSET -0.000022 21.986099 0.000010
							CHANNELS 3 Xrotation Yrotation Zrotation
							JOINT Tail06
							{
								OFFSET -0.000022 21.986099 0.000006
								CHANNELS 3 Xrotation Yrotation Zrotation
								JOINT Tail07
								{
									OFFSET -0.000022 21.986099 0.000000
									CHANNELS 3 Xrotation Yrotation Zrotation
									JOINT Tail08
									{
										OFFSET -0.000022 21.984848 0.000050
										CHANNELS 3 Xrotation Yrotation Zrotation
										JOINT Tail09
										{
											OFFSET -0.000025 21.926025 -1.606211
											CHANNELS 3 Xrotation Yrotation Zrotation
											JOINT Tail10
											{
												OFFSET -0.000027 21.750092 -3.203882
												CHANNELS 3 Xrotation Yrotation Zrotation
												End Site
												{
													OFFSET -0.000036 4.767395 21.461668
												}
											}
										}
									}
								}
							}
						}
					}
				}
			}
		}
		JOINT L_Thigh
		{
			OFFSET 24.788780 0.000021 -0.000034
			CHANNELS 3 Xrotation Yrotation Zrotation
			JOINT L_Calf
			{
				OFFSET 4.720837 4.161326 -21.049969
				CHANNELS 3 Xrotation Yrotation Zrotation
				JOINT L_Foot
				{
					OFFSET 2.154160 21.114433 -11.949743
					CHANNELS 3 Xrotation Yrotation Zrotation
					JOINT L_Toe0
					{
						OFFSET 4.557564 9.251841 -8.735286
						CHANNELS 3 Xrotation Yrotation Zrotation
						End Site
						{
							OFFSET 4.555542 -12.646044 1.018752
						}
					}
					JOINT L_Toe1
					{
						OFFSET 2.346291 5.845602 -11.687160
						CHANNELS 3 Xrotation Yrotation Zrotation
						End Site
						{
							OFFSET 5.347954 -12.298279 1.365644
						}
					}
					JOINT L_Toe2
					{
						OFFSET -0.356020 3.902458 -12.541145
						CHANNELS 3 Xrotation Yrotation Zrotation
						End Site
						{
							OFFSET 3.916235 -12.806129 1.542549
						}
					}
					JOINT L_Toe3
					{
						OFFSET -4.603447 3.183935 -12.435249
						CHANNELS 3 Xrotation Yrotation Zrotation
						End Site
						{
							OFFSET 3.810858 -12.587427 2.957583
						}
					}
					JOINT L_Toe4
					{
						OFFSET -7.144358 6.231495 -10.072764
						CHANNELS 3 Xrotation Yrotation Zrotation
						End Site
						{
							OFFSET 3.810858 -12.587425 2.957585
						}
					}
				}
			}
		}
		JOINT R_Thigh
		{
			OFFSET -24.788780 -0.000024 0.000034
			CHANNELS 3 Xrotation Yrotation Zrotation
			JOINT R_Calf
			{
				OFFSET -4.720922 4.161324 -21.049952
				CHANNELS 3 Xrotation Yrotation Zrotation
				JOINT R_Foot
				{
					OFFSET -2.154238 21.114414 -11.949730
					CHANNELS 3 Xrotation Yrotation Zrotation
					JOINT R_Toe0
					{
						OFFSET -4.557598 9.251823 -8.735270
						CHANNELS 3 Xrotation Yrotation Zrotation
						End Site
						{
							OFFSET -4.555508 -12.646051 1.018756
						}
					}
					JOINT R_Toe1
					{
						OFFSET -2.346325 5.845589 -11.687157
						CHANNELS 3 Xrotation Yrotation Zrotation
						End Site
						{
							OFFSET -5.347919 -12.298286 1.365654
						}
					}
					JOINT R_Toe2
					{
						OFFSET 0.355980 3.902462 -12.541145
						CHANNELS 3 Xrotation Yrotation Zrotation
						End Site
						{
							OFFSET -3.916199 -12.806131 1.542559
						}
					}
					JOINT R_Toe3
					{
						OFFSET 4.603411 3.183941 -12.435266
						CHANNELS 3 Xrotation Yrotation Zrotation
						End Site
						{
							OFFSET -3.810825 -12.587429 2.957591
						}
					}
					JOINT R_Toe4
					{
						OFFSET 7.144323 6.231503 -10.072779
						CHANNELS 3 Xrotation Yrotation Zrotation
						End Site
						{
							OFFSET -3.810825 -12.587433 2.957584
						}
					}
				}
			}
		}
	}
}
MOTION
Frames: 4
Frame Time: 0.033333
0.000000 0.000000 52.000000 0.000000 -0.000000 0.000044 -8.842944 -0.000088 0.000007 10.961080 0.000007 0.000018 2.118162 -0.000001 0.000003 4.876472 -0.000002 0.000004 -2.163954 0.000002 -0.000003 -6.986525 0.000003 -0.000007 -13.013541 0.000008 -0.000015 14.417327 -0.000016 -0.000007 -11.537027 -0.000053 0.000048 0.000010 0.000000 -0.000000 0.000020 0.000000 -0.000000 -0.000005 0.000007 -0.000020 0.000112 -0.000069 0.000010 -0.000000 -0.000003 -0.000003 0.000003 -0.000005 0.000010 0.000008 0.000000 0.000005 0.000110 0.000069 -0.000007 0.000003 -0.000002 -0.000000 -0.000003 0.000003 -0.000000 -0.000000 0.000000 -0.000000 -0.000873 4.114584 11.904649 26.136767 -13.607904 -29.332435 -23.413053 4.857584 -5.359899 -64.573462 -13.412983 -14.628588 4.814245 45.237880 32.496807 0.108388 -0.103826 0.046720 31.239882 13.715138 -10.715220 -21.103490 -3.971325 -2.962972 30.256519 6.344415 -6.448664 -32.343282 -14.390353 -8.157529 20.872343 -11.244812 -8.185807 -18.722424 -18.085395 -5.094113 18.635514 -29.682657 -0.393823 0.555233 0.804613 0.101800 -0.000908 -4.114892 -11.904634 1.174963 14.107439 33.206228 -12.983113 -2.414551 3.207790 -53.408814 5.511583 0.402002 4.813894 -45.237822 -32.497121 0.108385 0.103827 -0.046716 31.239926 -13.715162 10.714985 -21.103469 3.971276 2.963137 30.256560 -6.344443 6.448432 -32.343299 14.390252 8.157737 20.872418 11.244829 8.185626 -18.722465 18.085342 5.094265 18.635541 29.682657 0.393685 0.555247 -0.804608 -0.101806 -12.821442 -0.000004 0.000031 -8.690512 -1.231629 3.950030 3.553607 -0.181041 4.130727 10.254870 -0.516811 -5.348514 8.081716 -0.227258 -5.341327 3.149385 -0.198539 -9.484002 2.260961 -0.385532 -9.446042 3.251356 -0.480232 7.201985 2.529276 0.390782 7.076520 2.504828 0.702950 7.052490 -27.408907 -10.892145 11.838794 -10.432385 -0.073226 -2.410100 -27.253691 -19.732205 -8.454192 -2.318593 -4.298938 -0.446776 8.087297 0.872404 0.413572 17.133830 6.636278 3.687465 20.253539 6.370517 -9.434377 -1.696114 7.323598 -8.103845 -11.861596 6.993938 -18.227401 -11.338158 0.058822 2.619270 -43.150475 17.417216 11.350119 -2.318604 4.298944 0.446769 8.087302 -0.872371 -0.413611 17.133827 -6.636231 -3.687520 20.253560 -6.370449 9.434298 -1.696090 -7.323607 8.103844 
0.000000 0.000000 51.965591 0.000000 -0.000000 0.000044 -8.903760 -0.000089 0.000014 11.006387 -0.021001 -0.039939 2.213582 -0.021008 -0.039954 4.971890 -0.021009 -0.039946 -2.116540 -0.021005 -0.039952 -6.473031 -0.091349 -0.428432 -12.482944 -0.091344 -0.428434 14.242514 0.339430 -0.122782 -11.723183 -0.000053 0.000048 -0.216500 -0.000000 0.000001 0.000021 0.000000 -0.000000 -0.000004 0.000007 -0.000013 0.000110 -0.000074 -0.000007 0.000002 -0.000003 -0.000003 0.000005 -0.000007 0.000010 0.000008 0.000000 0.000009 0.000107 0.000075 -0.000008 0.000000 -0.000002 -0.000000 0.000000 -0.000002 -0.000001 -0.000000 0.000000 -0.000000 -0.000499 4.028735 11.904889 26.206932 -13.659591 -29.102381 -23.867652 4.972956 -5.443673 -64.462820 -13.406666 -14.533044 4.814246 45.237880 32.496821 0.108381 -0.103833 0.046720 31.239878 13.715131 -10.715214 -21.103490 -3.971327 -2.962968 30.256522 6.344418 -6.448665 -32.343285 -14.390353 -8.157531 20.872343 -11.244814 -8.185808 -18.722426 -18.085398 -5.094119 18.635517 -29.682660 -0.393826 0.555237 0.804613 0.101802 -0.000922 -4.029596 -11.904726 1.062663 14.216947 33.306823 -13.883253 -2.608946 3.409937 -52.686003 5.719582 0.358573 4.813890 -45.237825 -32.497125 0.108383 0.103826 -0.046713 31.239926 -13.715162 10.714982 -21.103463 3.971275 2.963134 30.256560 -6.344444 6.448435 -32.343299 14.390249 8.157741 20.872416 11.244830 8.185627 -18.722467 18.085339 5.094266 18.635548 29.682657 0.393681 0.555247 -0.804604 -0.101814 -12.771929 -0.000004 0.000031 -8.666939 -1.231629 3.950031 3.568932 -0.182145 4.130726 10.270081 -0.519021 -5.348518 8.062585 -0.226297 -5.341327 3.137382 -0.199046 -9.484005 2.249205 -0.388011 -9.446056 3.240171 -0.484615 7.202084 2.517632 0.387818 7.076687 2.504828 0.702950 7.052491 -27.477704 -10.930035 11.778954 -10.188907 -0.076520 -2.353845 -27.369019 -19.720426 -8.470948 -2.318594 -4.298940 -0.446776 8.087297 0.872395 0.413572 17.133828 6.636277 3.687463 20.253538 6.370514 -9.434380 -1.696114 7.323597 -8.103846 -11.915247 7.043129 -18.180106 -11.089531 0.063098 2.561878 -43.279367 17.399577 11.365127 -2.318605 4.298945 0.446770 8.087305 -0.872368 -0.413611 17.133828 -6.636226 -3.687520 20.253553 -6.370447 9.434296 -1.696090 -7.323605 8.103844 
-0.000000 0.000000 51.930157 0.000000 -0.000000 0.000044 -8.966468 -0.000089 0.000041 11.053785 -0.041765 -0.076275 2.312459 -0.041773 -0.076284 5.070767 -0.041774 -0.076282 -2.067077 -0.041770 -0.076289 -5.936718 -0.188553 -0.874285 -11.936509 -0.188549 -0.874293 14.054070 0.679649 -0.287966 -11.912673 -0.000053 0.000049 -0.437285 -0.000001 0.000002 0.000022 0.000000 -0.000000 -0.000005 0.000007 -0.000018 0.000106 -0.000078 -0.000004 0.000004 0.000003 -0.000001 0.000001 -0.000006 0.000008 0.000008 0.000000 0.000005 0.000103 0.000080 -0.000001 0.000007 -0.000009 -0.000001 -0.000002 0.000003 -0.000003 0.000002 0.000000 -0.000000 0.000289 3.941050 11.904958 26.268733 -13.711248 -28.889508 -24.360635 5.098835 -5.533510 -64.316347 -13.414714 -14.442821 4.814245 45.237883 32.496821 0.108382 -0.103824 0.046721 31.239875 13.715132 -10.715213 -21.103498 -3.971326 -2.962972 30.256515 6.344420 -6.448661 -32.343282 -14.390353 -8.157527 20.872339 -11.244809 -8.185803 -18.722426 -18.085395 -5.094115 18.635517 -29.682660 -0.393822 0.555232 0.804609 0.101802 -0.000899 -3.942387 -11.904671 0.946762 14.340401 33.380104 -14.792959 -2.808733 3.611252 -51.964369 5.916202 0.303940 4.813899 -45.237825 -32.497118 0.108379 0.103828 -0.046714 31.239936 -13.715164 10.714982 -21.103473 3.971275 2.963133 30.256560 -6.344443 6.448429 -32.343295 14.390251 8.157738 20.872423 11.244829 8.185627 -18.722467 18.085339 5.094268 18.635548 29.682653 0.393682 0.555244 -0.804609 -0.101812 -12.720915 -0.000003 0.000031 -8.642668 -1.231629 3.950029 3.584712 -0.183266 4.130726 10.285738 -0.521296 -5.348523 8.042881 -0.225315 -5.341326 3.125020 -0.199568 -9.484006 2.237101 -0.390563 -9.446058 3.228654 -0.489126 7.202185 2.505644 0.384765 7.076852 2.504827 0.702950 7.052489 -27.547710 -10.968651 11.717627 -9.940267 -0.079640 -2.296383 -27.486334 -19.708424 -8.487917 -2.318594 -4.298938 -0.446774 8.087296 0.872407 0.413570 17.133828 6.636278 3.687461 20.253539 6.370521 -9.434378 -1.696115 7.323600 -8.103841 -11.969627 7.093227 -18.131598 -10.835707 0.067198 2.503277 -43.410459 17.381570 11.380232 -2.318604 4.298947 0.446769 8.087299 -0.872369 -0.413609 17.133825 -6.636226 -3.687517 20.253555 -6.370447 9.434297 -1.696090 -7.323606 8.103844 
0.000000 0.000000 51.893745 0.000000 -0.000000 0.000044 -9.030966 -0.000090 -0.000007 11.102704 -0.062361 -0.109975 2.414145 -0.062369 -0.109984 5.172455 -0.062370 -0.109976 -2.016113 -0.062366 -0.109990 -5.380880 -0.292214 -1.334516 -11.367925 -0.292210 -1.334518 13.853440 1.018248 -0.489209 -12.104848 -0.000053 0.000049 -0.661573 -0.000002 0.000003 0.000021 -0.000000 -0.000000 -0.000005 0.000007 -0.000020 0.000104 -0.000083 -0.000011 0.000006 0.000007 0.000002 0.000003 -0.000004 0.000010 0.000007 -0.000000 0.000005 0.000102 0.000084 0.000008 0.000007 -0.000009 -0.000003 -0.000001 0.000004 0.000002 0.000000 0.000000 -0.000000 0.000961 3.851332 11.904979 26.322953 -13.762230 -28.690623 -24.882473 5.232949 -5.627455 -64.142409 -13.433613 -14.356276 4.814241 45.237873 32.496814 0.108383 -0.103822 0.046720 31.239875 13.715134 -10.715216 -21.103490 -3.971329 -2.962973 30.256519 6.344420 -6.448668 -32.343285 -14.390350 -8.157532 20.872343 -11.244811 -8.185809 -18.722424 -18.085400 -5.094119 18.635517 -29.682657 -0.393832 0.555237 0.804610 0.101800 -0.000898 -3.852313 -11.904860 0.825309 14.472245 33.432427 -15.709519 -3.013346 3.811007 -51.246015 6.102449 0.239993 4.813893 -45.237825 -32.497125 0.108384 0.103822 -0.046714 31.239929 -13.715163 10.714987 -21.103466 3.971274 2.963135 30.256560 -6.344444 6.448436 -32.343299 14.390251 8.157739 20.872418 11.244831 8.185627 -18.722472 18.085342 5.094267 18.635546 29.682660 0.393678 0.555243 -0.804609 -0.101812 -12.668520 -0.000003 0.000031 -8.617732 -1.231629 3.950029 3.600921 -0.184399 4.130726 10.301821 -0.523633 -5.348526 8.022639 -0.224314 -5.341324 3.112322 -0.200104 -9.484005 2.224668 -0.393185 -9.446061 3.216822 -0.493758 7.202294 2.493330 0.381631 7.077020 2.504828 0.702949 7.052489 -27.618823 -11.007886 11.654936 -9.686831 -0.082567 -2.237802 -27.617016 -19.695330 -8.507491 -2.318593 -4.298942 -0.446774 8.087297 0.872402 0.413572 17.133827 6.636274 3.687462 20.253541 6.370516 -9.434380 -1.696114 7.323597 -8.103846 -12.024643 7.144172 -18.081973 -10.577064 0.071118 2.443541 -43.543877 17.363167 11.395462 -2.318605 4.298940 0.446767 8.087305 -0.872368 -0.413611 17.133828 -6.636228 -3.687518 20.253560 -6.370448 9.434297 -1.696089 -7.323606 8.103846 
